<svg width="48" height="44" viewBox="0 0 48 44" fill="none" xmlns="http://www.w3.org/2000/svg">
<path d="M44.2031 23.1328H3.7969C1.69989 23.1328 1.42219e-07 24.8327 1.42219e-07 26.9297V39.687C-0.000567625 41.784 1.69892 43.4843 3.79593 43.4848H3.7969H44.2031C46.3001 43.4848 48 41.7849 48 39.6879C48 39.6876 48 39.6873 48 39.687V26.9297C48 24.8327 46.3001 23.1328 44.2031 23.1328ZM20.9937 27.4744L18.2949 39.4548C18.1157 40.2499 17.4094 40.8147 16.5944 40.8145H16.5631C15.7857 40.8132 15.1032 40.2973 14.8899 39.5498L12.6367 31.6689C12.6127 31.5818 12.5227 31.5307 12.4356 31.5547C12.38 31.57 12.3366 31.6134 12.3213 31.6689L10.1192 39.541C9.86074 40.468 8.89959 41.0101 7.9725 40.7517C7.35494 40.5795 6.88174 40.0821 6.74053 39.4567L4.03301 27.4763C3.84687 26.7421 4.2911 25.9961 5.02531 25.8099C5.75951 25.6238 6.50556 26.068 6.6917 26.8022C6.69746 26.825 6.70265 26.8479 6.70728 26.8709L8.49112 34.7518C8.51164 34.8403 8.60005 34.8955 8.68854 34.875C8.74661 34.8615 8.79285 34.8178 8.80947 34.7605L10.994 26.9493C11.1828 26.2707 11.8011 25.8015 12.5055 25.8021C13.2075 25.8016 13.8242 26.2679 14.015 26.9433L16.2338 34.7634C16.2594 34.8506 16.3508 34.9006 16.438 34.875C16.4952 34.8582 16.5388 34.8118 16.5521 34.7536L18.3154 26.8728C18.456 26.2472 19.0113 25.8025 19.6525 25.802C20.4099 25.8003 21.0253 26.413 21.0269 27.1704C21.0273 27.2727 21.0161 27.3747 20.9937 27.4744ZM27.6421 39.396C27.6421 40.1794 27.0071 40.8145 26.2237 40.8145C25.4403 40.815 24.8049 40.1803 24.8043 39.397C24.8043 39.3967 24.8043 39.3963 24.8043 39.396V27.2207C24.8049 26.4371 25.4402 25.8022 26.2237 25.8022C27.0069 25.8028 27.6416 26.4375 27.6421 27.2207V39.396ZM44.0013 39.0316C44.0019 40.0157 43.2045 40.8139 42.2204 40.8145C42.2197 40.8145 42.2191 40.8145 42.2184 40.8145C41.616 40.8143 41.0545 40.5099 40.7255 40.0053L35.3143 31.6983C35.236 31.5782 35.0752 31.5443 34.9551 31.6226C34.8815 31.6706 34.8371 31.7526 34.8372 31.8404V39.3833C34.8383 40.1726 34.1993 40.8134 33.4099 40.8145C33.408 40.8145 33.406 40.8145 33.404 40.8145C32.6152 40.8145 31.9757 40.175 31.9757 39.3862V27.584C31.9763 26.6026 32.7723 25.8075 33.7538 25.808C34.3543 25.8084 34.9139 26.112 35.2417 26.6152L40.6627 34.9525C40.741 35.0726 40.9019 35.1065 41.022 35.0282C41.0953 34.9804 41.1396 34.8989 41.1398 34.8114V27.2313C41.1192 26.4422 41.7421 25.7858 42.5312 25.7651C43.3202 25.7445 43.9766 26.3674 43.9973 27.1565C43.998 27.1814 43.998 27.2064 43.9973 27.2313L44.0013 39.0316Z" fill="#9E2B86"/>
<path d="M12.3801 17.6134H35.5719V19.1524C35.5719 20.7559 34.2719 22.0559 32.6684 22.0559H15.2816C13.6781 22.0559 12.3781 20.7559 12.3781 19.1524V17.6134H12.3801Z" fill="#9E2B86"/>
<path d="M38.9634 6.41335L37.4313 11.0919L35.6808 16.4375H12.489L10.6454 11.0919L8.96533 6.21844C9.3536 6.10051 9.70643 5.88776 9.99194 5.59933L16.0311 11.0919L22.6708 5.05273C23.4691 5.5531 24.4831 5.5531 25.2814 5.05273L31.9201 11.09L37.877 5.67184C38.1651 6.01299 38.5407 6.26938 38.9634 6.41335Z" fill="#9E2B86"/>
<path d="M23.9755 5.43119C25.3329 5.43119 26.4333 4.3308 26.4333 2.97341C26.4333 1.61601 25.3329 0.515625 23.9755 0.515625C22.6181 0.515625 21.5177 1.61601 21.5177 2.97341C21.5177 4.3308 22.6181 5.43119 23.9755 5.43119Z" fill="#9E2B86"/>
<path d="M39.751 6.54252C41.1084 6.54252 42.2088 5.44213 42.2088 4.08474C42.2088 2.72734 41.1084 1.62695 39.751 1.62695C38.3936 1.62695 37.2932 2.72734 37.2932 4.08474C37.2932 5.44213 38.3936 6.54252 39.751 6.54252Z" fill="#9E2B86"/>
<path d="M8.24916 6.32572C9.60656 6.32572 10.7069 5.22533 10.7069 3.86794C10.7069 2.51054 9.60656 1.41016 8.24916 1.41016C6.89177 1.41016 5.79138 2.51054 5.79138 3.86794C5.79138 5.22533 6.89177 6.32572 8.24916 6.32572Z" fill="#9E2B86"/>
</svg>
