<svg width="24" height="23" viewBox="0 0 24 23" fill="none" xmlns="http://www.w3.org/2000/svg">
<path d="M12.178 22.5889C18.4158 22.5889 23.4725 17.5322 23.4725 11.2945C23.4725 5.05671 18.4158 0 12.178 0C5.94025 0 0.883545 5.05671 0.883545 11.2945C0.883545 17.5322 5.94025 22.5889 12.178 22.5889Z" fill="#E96E32"/>
<path d="M12.1779 19.4097C16.6598 19.4097 20.2931 15.7764 20.2931 11.2945C20.2931 6.81261 16.6598 3.17932 12.1779 3.17932C7.69603 3.17932 4.06274 6.81261 4.06274 11.2945C4.06274 15.7764 7.69603 19.4097 12.1779 19.4097Z" fill="#E5E8EF"/>
<path d="M18.6152 6.35083C17.2458 5.29907 15.5304 4.67091 13.6705 4.67091C9.18819 4.67091 5.55641 8.30614 5.55641 12.7886C5.55641 14.6486 6.18112 16.3638 7.23288 17.7332C5.30584 16.2473 4.06348 13.9179 4.06348 11.2956C4.06348 6.8132 7.69525 3.17798 12.1775 3.17798C14.7999 3.17798 17.1294 4.42034 18.6152 6.35083Z" fill="#CDD4DF"/>
<path d="M17.2918 12.7078C17.2918 13.9646 16.2737 14.9826 15.017 14.9826C14.3788 14.9826 13.7992 14.7196 13.39 14.2957C13.653 15.0361 13.9989 15.6793 14.452 16.1907C14.5932 16.3565 14.4422 16.59 14.2327 16.5415C13.2731 16.3077 12.3183 16.3027 11.3587 16.5365C11.1492 16.5853 10.9982 16.3515 11.1395 16.1859C11.5925 15.6695 11.9384 15.0314 12.2014 14.291C11.7922 14.7196 11.2125 14.9826 10.5695 14.9826C9.31769 14.9826 8.29956 13.9646 8.29956 12.7078C8.29956 11.451 9.31769 10.433 10.5695 10.433C10.7596 10.433 10.9397 10.4572 11.1151 10.501C10.7449 10.1016 10.5209 9.56101 10.5209 8.97161C10.5209 7.71955 11.539 6.70154 12.7957 6.70154C14.0476 6.70154 15.0656 7.71955 15.0656 8.97161C15.0656 9.56101 14.8416 10.1016 14.4714 10.501C14.6468 10.4572 14.8271 10.433 15.017 10.433C16.2737 10.433 17.2918 11.451 17.2918 12.7078Z" fill="#CDD4DF"/>
<path d="M16.6742 12.377C16.6742 13.6338 15.656 14.6518 14.3993 14.6518C13.7612 14.6518 13.1815 14.3888 12.7723 13.9649C13.0354 14.7053 13.3812 15.3485 13.8343 15.8599C13.9755 16.0257 13.8246 16.2592 13.615 16.2107C12.6554 15.9769 11.7006 15.9719 10.741 16.2057C10.5315 16.2545 10.3806 16.0207 10.5219 15.8551C10.9748 15.3387 11.3207 14.7006 11.5837 13.9601C11.1745 14.3888 10.5949 14.6518 9.95184 14.6518C8.70002 14.6518 7.68188 13.6338 7.68188 12.377C7.68188 11.1202 8.70002 10.1022 9.95184 10.1022C10.1419 10.1022 10.3221 10.1264 10.4975 10.1702C10.1273 9.77084 9.90319 9.2302 9.90319 8.6408C9.90319 7.38874 10.9213 6.37073 12.178 6.37073C13.43 6.37073 14.448 7.38874 14.448 8.6408C14.448 9.2302 14.2239 9.77084 13.8537 10.1702C14.0291 10.1264 14.2094 10.1022 14.3993 10.1022C15.656 10.1022 16.6742 11.1202 16.6742 12.377Z" fill="#E96E32"/>
</svg>
